<svg width="68" height="323" viewBox="0 0 68 323" fill="none" xmlns="http://www.w3.org/2000/svg">
<circle cx="6.8999" cy="6.5" r="6.5" fill="#BCB8B6" fill-opacity="0.1"/>
<circle cx="25.0996" cy="6.5" r="6.5" fill="#BCB8B6" fill-opacity="0.1"/>
<circle cx="43.2998" cy="6.5" r="6.5" fill="#BCB8B6" fill-opacity="0.1"/>
<circle cx="61.4995" cy="6.5" r="6.5" fill="#BCB8B6" fill-opacity="0.1"/>
<circle cx="6.8999" cy="24.7" r="6.5" fill="#BCB8B6" fill-opacity="0.1"/>
<circle cx="6.8999" cy="42.8999" r="6.5" fill="#BCB8B6" fill-opacity="0.1"/>
<circle cx="6.8999" cy="61.0999" r="6.5" fill="#BCB8B6" fill-opacity="0.1"/>
<circle cx="6.8999" cy="79.3" r="6.5" fill="#BCB8B6" fill-opacity="0.1"/>
<circle cx="6.8999" cy="97.5" r="6.5" fill="#BCB8B6" fill-opacity="0.1"/>
<circle cx="6.8999" cy="115.7" r="6.5" fill="#BCB8B6" fill-opacity="0.1"/>
<circle cx="6.8999" cy="133.9" r="6.5" fill="#BCB8B6" fill-opacity="0.1"/>
<circle cx="6.8999" cy="152.1" r="6.5" fill="#BCB8B6" fill-opacity="0.1"/>
<circle cx="6.8999" cy="170.3" r="6.5" fill="#BCB8B6" fill-opacity="0.1"/>
<circle cx="6.8999" cy="188.5" r="6.5" fill="#BCB8B6" fill-opacity="0.1"/>
<circle cx="6.8999" cy="206.7" r="6.5" fill="#BCB8B6" fill-opacity="0.1"/>
<circle cx="6.8999" cy="224.9" r="6.5" fill="#BCB8B6" fill-opacity="0.1"/>
<circle cx="6.8999" cy="243.1" r="6.5" fill="#BCB8B6" fill-opacity="0.1"/>
<circle cx="6.8999" cy="261.3" r="6.5" fill="#BCB8B6" fill-opacity="0.1"/>
<circle cx="6.8999" cy="279.5" r="6.5" fill="#BCB8B6" fill-opacity="0.1"/>
<circle cx="6.8999" cy="297.7" r="6.5" fill="#BCB8B6" fill-opacity="0.1"/>
<circle cx="6.8999" cy="315.9" r="6.5" fill="#BCB8B6" fill-opacity="0.1"/>
<circle cx="25.0996" cy="24.7" r="6.5" fill="#BCB8B6" fill-opacity="0.1"/>
<circle cx="25.0996" cy="42.8999" r="6.5" fill="#BCB8B6" fill-opacity="0.1"/>
<circle cx="25.0996" cy="61.0999" r="6.5" fill="#BCB8B6" fill-opacity="0.1"/>
<circle cx="25.0996" cy="79.3" r="6.5" fill="#BCB8B6" fill-opacity="0.1"/>
<circle cx="25.0996" cy="97.5" r="6.5" fill="#BCB8B6" fill-opacity="0.1"/>
<circle cx="25.0996" cy="115.7" r="6.5" fill="#BCB8B6" fill-opacity="0.1"/>
<circle cx="25.0996" cy="133.9" r="6.5" fill="#BCB8B6" fill-opacity="0.1"/>
<circle cx="25.0996" cy="152.1" r="6.5" fill="#BCB8B6" fill-opacity="0.1"/>
<circle cx="25.0996" cy="170.3" r="6.5" fill="#BCB8B6" fill-opacity="0.1"/>
<circle cx="25.0996" cy="188.5" r="6.5" fill="#BCB8B6" fill-opacity="0.1"/>
<circle cx="25.0996" cy="206.7" r="6.5" fill="#BCB8B6" fill-opacity="0.1"/>
<circle cx="25.0996" cy="224.9" r="6.5" fill="#BCB8B6" fill-opacity="0.1"/>
<circle cx="25.0996" cy="243.1" r="6.5" fill="#BCB8B6" fill-opacity="0.1"/>
<circle cx="25.0996" cy="261.3" r="6.5" fill="#BCB8B6" fill-opacity="0.1"/>
<circle cx="25.0996" cy="279.5" r="6.5" fill="#BCB8B6" fill-opacity="0.1"/>
<circle cx="25.0996" cy="297.7" r="6.5" fill="#BCB8B6" fill-opacity="0.1"/>
<circle cx="25.0996" cy="315.9" r="6.5" fill="#BCB8B6" fill-opacity="0.1"/>
<circle cx="43.2998" cy="24.7" r="6.5" fill="#BCB8B6" fill-opacity="0.1"/>
<circle cx="43.2998" cy="42.8999" r="6.5" fill="#BCB8B6" fill-opacity="0.1"/>
<circle cx="43.2998" cy="61.0999" r="6.5" fill="#BCB8B6" fill-opacity="0.1"/>
<circle cx="43.2998" cy="79.3" r="6.5" fill="#BCB8B6" fill-opacity="0.1"/>
<circle cx="43.2998" cy="97.5" r="6.5" fill="#BCB8B6" fill-opacity="0.1"/>
<circle cx="43.2998" cy="115.7" r="6.5" fill="#BCB8B6" fill-opacity="0.1"/>
<circle cx="43.2998" cy="133.9" r="6.5" fill="#BCB8B6" fill-opacity="0.1"/>
<circle cx="43.2998" cy="152.1" r="6.5" fill="#BCB8B6" fill-opacity="0.1"/>
<circle cx="43.2998" cy="170.3" r="6.5" fill="#BCB8B6" fill-opacity="0.1"/>
<circle cx="43.2998" cy="188.5" r="6.5" fill="#BCB8B6" fill-opacity="0.1"/>
<circle cx="43.2998" cy="206.7" r="6.5" fill="#BCB8B6" fill-opacity="0.1"/>
<circle cx="43.2998" cy="224.9" r="6.5" fill="#BCB8B6" fill-opacity="0.1"/>
<circle cx="43.2998" cy="243.1" r="6.5" fill="#BCB8B6" fill-opacity="0.1"/>
<circle cx="43.2998" cy="261.3" r="6.5" fill="#BCB8B6" fill-opacity="0.1"/>
<circle cx="43.2998" cy="279.5" r="6.5" fill="#BCB8B6" fill-opacity="0.1"/>
<circle cx="43.2998" cy="297.7" r="6.5" fill="#BCB8B6" fill-opacity="0.1"/>
<circle cx="43.2998" cy="315.9" r="6.5" fill="#BCB8B6" fill-opacity="0.1"/>
<circle cx="61.4995" cy="24.7" r="6.5" fill="#BCB8B6" fill-opacity="0.1"/>
<circle cx="61.4995" cy="42.8999" r="6.5" fill="#BCB8B6" fill-opacity="0.1"/>
<circle cx="61.4995" cy="61.0999" r="6.5" fill="#BCB8B6" fill-opacity="0.1"/>
<circle cx="61.4995" cy="79.3" r="6.5" fill="#BCB8B6" fill-opacity="0.1"/>
<circle cx="61.4995" cy="97.5" r="6.5" fill="#BCB8B6" fill-opacity="0.1"/>
<circle cx="61.4995" cy="115.7" r="6.5" fill="#BCB8B6" fill-opacity="0.1"/>
<circle cx="61.4995" cy="133.9" r="6.5" fill="#BCB8B6" fill-opacity="0.1"/>
<circle cx="61.4995" cy="152.1" r="6.5" fill="#BCB8B6" fill-opacity="0.1"/>
<circle cx="61.4995" cy="170.3" r="6.5" fill="#BCB8B6" fill-opacity="0.1"/>
<circle cx="61.4995" cy="188.5" r="6.5" fill="#BCB8B6" fill-opacity="0.1"/>
<circle cx="61.4995" cy="206.7" r="6.5" fill="#BCB8B6" fill-opacity="0.1"/>
<circle cx="61.4995" cy="224.9" r="6.5" fill="#BCB8B6" fill-opacity="0.1"/>
<circle cx="61.4995" cy="243.1" r="6.5" fill="#BCB8B6" fill-opacity="0.1"/>
<circle cx="61.4995" cy="261.3" r="6.5" fill="#BCB8B6" fill-opacity="0.1"/>
<circle cx="61.4995" cy="279.5" r="6.5" fill="#BCB8B6" fill-opacity="0.1"/>
<circle cx="61.4995" cy="297.7" r="6.5" fill="#BCB8B6" fill-opacity="0.1"/>
<circle cx="61.4995" cy="315.9" r="6.5" fill="#BCB8B6" fill-opacity="0.1"/>
</svg>
