<svg width="168" height="36" viewBox="0 0 168 36" fill="none" xmlns="http://www.w3.org/2000/svg">
<circle cx="150" cy="18" r="18" fill="white"/>
<path d="M143.568 13.5973C144.675 13.5973 145.573 12.6993 145.573 11.5916C145.573 10.4839 144.675 9.58594 143.568 9.58594C142.46 9.58594 141.562 10.4839 141.562 11.5916C141.562 12.6993 142.46 13.5973 143.568 13.5973Z" fill="#2B2B39"/>
<path d="M147.466 15.117V26.2445H150.921V20.7417C150.921 19.2897 151.194 17.8835 152.995 17.8835C154.77 17.8835 154.792 19.5436 154.792 20.8334V26.2454H158.249V20.1431C158.249 17.1456 157.604 14.842 154.1 14.842C152.418 14.842 151.29 15.7651 150.829 16.6387H150.783V15.117H147.466ZM141.836 15.117H145.296V26.2445H141.836V15.117Z" fill="#2B2B39"/>
<circle cx="106" cy="18" r="18" fill="white"/>
<path d="M104.514 18.0949V27.2431H107.549V18.2378H110.056L110.451 14.9502H107.549V12.9491C107.549 11.9485 107.812 11.3767 109 11.3767H110.583V8.51794C110.319 8.51794 109.396 8.375 108.34 8.375C106.097 8.375 104.514 9.94734 104.514 12.6632V14.9502H101.875V18.0949H104.514Z" fill="#2B2B39"/>
<circle cx="62" cy="18" r="18" fill="white"/>
<path d="M61.9539 10.2542C64.4748 10.2542 64.7498 10.2542 65.7581 10.3C66.6748 10.3458 67.1789 10.4833 67.4998 10.6208C67.9123 10.7583 68.2789 11.0333 68.5998 11.3083C68.9206 11.6292 69.1498 11.9958 69.2873 12.4083C69.4248 12.7292 69.5623 13.2333 69.6081 14.15C69.6539 15.1583 69.6539 15.4333 69.6539 17.9542C69.6539 20.475 69.6539 20.75 69.6081 21.7583C69.5623 22.675 69.4248 23.1792 69.2873 23.5C68.9664 24.325 68.3248 24.9667 67.4998 25.2875C67.1789 25.425 66.6748 25.5625 65.7581 25.6083C64.7498 25.6542 64.4748 25.6542 61.9539 25.6542C59.4331 25.6542 59.1581 25.6542 58.1498 25.6083C57.2331 25.5625 56.7289 25.425 56.4081 25.2875C55.9956 25.15 55.6289 24.875 55.3081 24.6C54.9873 24.2792 54.7581 23.9125 54.6206 23.5C54.4831 23.1792 54.3456 22.675 54.2998 21.7583C54.2539 20.75 54.2539 20.475 54.2539 17.9542C54.2539 15.4333 54.2539 15.1583 54.2998 14.15C54.3456 13.2333 54.4831 12.7292 54.6206 12.4083C54.7581 11.9958 55.0331 11.6292 55.3081 11.3083C55.6289 10.9875 55.9956 10.7583 56.4081 10.6208C56.7289 10.4833 57.2331 10.3458 58.1498 10.3C59.1581 10.2542 59.4789 10.2542 61.9539 10.2542ZM61.9539 8.55835C59.3873 8.55835 59.0664 8.55835 58.0581 8.60418C57.0498 8.65002 56.3623 8.78752 55.7664 9.06252C55.1706 9.29168 54.6206 9.65835 54.1623 10.1167C53.7039 10.575 53.2914 11.1708 53.0623 11.7667C52.8331 12.3625 52.6498 13.05 52.6039 14.0583C52.5581 15.0667 52.5581 15.3875 52.5581 17.9542C52.5581 20.5208 52.5581 20.8417 52.6039 21.85C52.6498 22.8583 52.7873 23.5458 53.0623 24.1417C53.2914 24.7375 53.6581 25.3333 54.1623 25.7917C54.6206 26.25 55.2164 26.6625 55.8123 26.8917C56.4081 27.1208 57.0956 27.3042 58.1039 27.35C59.1123 27.3958 59.4331 27.3958 61.9998 27.3958C64.5664 27.3958 64.8873 27.3958 65.8956 27.35C66.9039 27.3042 67.5914 27.1667 68.1873 26.8917C69.4706 26.3875 70.4331 25.425 70.9373 24.1417C71.1664 23.5458 71.3498 22.8583 71.3956 21.85C71.4414 20.8417 71.4414 20.5208 71.4414 17.9542C71.4414 15.3875 71.4414 15.0667 71.3956 14.0583C71.3498 13.05 71.2123 12.3625 70.9373 11.7667C70.7081 11.125 70.3414 10.575 69.8373 10.1167C69.3789 9.65835 68.7831 9.24585 68.1873 9.01668C67.5914 8.78752 66.9039 8.60418 65.8956 8.55835C64.8414 8.55835 64.5206 8.55835 61.9539 8.55835Z" fill="#2B2B39"/>
<path d="M61.9526 13.1416C59.2943 13.1416 57.1401 15.2958 57.1401 17.9541C57.1401 20.6124 59.2943 22.7666 61.9526 22.7666C64.611 22.7666 66.7651 20.6124 66.7651 17.9541C66.811 15.2958 64.6568 13.1416 61.9526 13.1416ZM61.9526 21.1166C60.211 21.1166 58.836 19.6958 58.836 17.9999C58.836 16.2583 60.2568 14.8833 61.9526 14.8833C63.6943 14.8833 65.0693 16.3041 65.0693 17.9999C65.1151 19.6958 63.6943 21.1166 61.9526 21.1166Z" fill="#2B2B39"/>
<path d="M66.9969 14.1042C67.6297 14.1042 68.1427 13.5912 68.1427 12.9583C68.1427 12.3255 67.6297 11.8125 66.9969 11.8125C66.3641 11.8125 65.8511 12.3255 65.8511 12.9583C65.8511 13.5912 66.3641 14.1042 66.9969 14.1042Z" fill="#2B2B39"/>
<circle cx="18" cy="18" r="18" fill="white"/>
<path d="M25.7627 12.1305C26.623 11.6148 27.2836 10.7983 27.5947 9.82546C26.7897 10.3029 25.898 10.6496 24.9489 10.8365C24.1889 10.0268 23.1061 9.52075 21.9078 9.52075C19.6067 9.52075 17.7412 11.3862 17.7412 13.6871C17.7412 14.0136 17.7781 14.3317 17.8491 14.6366C14.3864 14.4628 11.3163 12.8041 9.2614 10.2834C8.90276 10.8988 8.6973 11.6145 8.6973 12.378C8.6973 13.8235 9.43292 15.0988 10.5509 15.8459C9.86784 15.8243 9.22545 15.6369 8.66365 15.3248C8.66335 15.3422 8.66335 15.3596 8.66335 15.3772C8.66335 17.3959 10.0995 19.0799 12.0055 19.4626C11.6559 19.5578 11.2878 19.6087 10.9078 19.6087C10.6393 19.6087 10.3783 19.5826 10.124 19.5339C10.6541 21.1893 12.1928 22.3938 14.016 22.4275C12.5901 23.5449 10.7935 24.211 8.84155 24.211C8.50528 24.211 8.17361 24.1913 7.84766 24.1528C9.69149 25.335 11.8816 26.0247 14.2345 26.0247C21.898 26.0247 26.0887 19.676 26.0887 14.1702C26.0887 13.9896 26.0847 13.8099 26.0767 13.6312C26.8907 13.0438 27.5971 12.31 28.1557 11.4745C27.4085 11.8058 26.6055 12.0298 25.7627 12.1305Z" fill="#2B2B39"/>
</svg>
